<?xml version="1.0" encoding="UTF-8"?>
<!DOCTYPE svg PUBLIC "-//W3C//DTD SVG 1.1//EN" "http://www.w3.org/Graphics/SVG/1.1/DTD/svg11.dtd">
<svg version="1.2" width="154mm" height="30mm" viewBox="0 0 15400 3000" preserveAspectRatio="xMidYMid" fill-rule="evenodd" stroke-width="28.222" stroke-linejoin="round" xmlns="http://www.w3.org/2000/svg" xmlns:ooo="http://xml.openoffice.org/svg/export" xmlns:xlink="http://www.w3.org/1999/xlink" xmlns:presentation="http://sun.com/xmlns/staroffice/presentation" xmlns:smil="http://www.w3.org/2001/SMIL20/" xmlns:anim="urn:oasis:names:tc:opendocument:xmlns:animation:1.0" xml:space="preserve">
 <defs class="ClipPathGroup">
  <clipPath id="presentation_clip_path" clipPathUnits="userSpaceOnUse">
   <rect x="0" y="0" width="15400" height="3000"/>
  </clipPath>
  <clipPath id="presentation_clip_path_shrink" clipPathUnits="userSpaceOnUse">
   <rect x="15" y="3" width="15370" height="2994"/>
  </clipPath>
 </defs>
 <defs class="TextShapeIndex">
  <g ooo:slide="id1" ooo:id-list="id3 id4 id5 id6 id7"/>
 </defs>
 <defs class="EmbeddedBulletChars">
  <g id="bullet-char-template-57356" transform="scale(0.00048828125,-0.00048828125)">
   <path d="M 580,1141 L 1163,571 580,0 -4,571 580,1141 Z"/>
  </g>
  <g id="bullet-char-template-57354" transform="scale(0.00048828125,-0.00048828125)">
   <path d="M 8,1128 L 1137,1128 1137,0 8,0 8,1128 Z"/>
  </g>
  <g id="bullet-char-template-10146" transform="scale(0.00048828125,-0.00048828125)">
   <path d="M 174,0 L 602,739 174,1481 1456,739 174,0 Z M 1358,739 L 309,1346 659,739 1358,739 Z"/>
  </g>
  <g id="bullet-char-template-10132" transform="scale(0.00048828125,-0.00048828125)">
   <path d="M 2015,739 L 1276,0 717,0 1260,543 174,543 174,936 1260,936 717,1481 1274,1481 2015,739 Z"/>
  </g>
  <g id="bullet-char-template-10007" transform="scale(0.00048828125,-0.00048828125)">
   <path d="M 0,-2 C -7,14 -16,27 -25,37 L 356,567 C 262,823 215,952 215,954 215,979 228,992 255,992 264,992 276,990 289,987 310,991 331,999 354,1012 L 381,999 492,748 772,1049 836,1024 860,1049 C 881,1039 901,1025 922,1006 886,937 835,863 770,784 769,783 710,716 594,584 L 774,223 C 774,196 753,168 711,139 L 727,119 C 717,90 699,76 672,76 641,76 570,178 457,381 L 164,-76 C 142,-110 111,-127 72,-127 30,-127 9,-110 8,-76 1,-67 -2,-52 -2,-32 -2,-23 -1,-13 0,-2 Z"/>
  </g>
  <g id="bullet-char-template-10004" transform="scale(0.00048828125,-0.00048828125)">
   <path d="M 285,-33 C 182,-33 111,30 74,156 52,228 41,333 41,471 41,549 55,616 82,672 116,743 169,778 240,778 293,778 328,747 346,684 L 369,508 C 377,444 397,411 428,410 L 1163,1116 C 1174,1127 1196,1133 1229,1133 1271,1133 1292,1118 1292,1087 L 1292,965 C 1292,929 1282,901 1262,881 L 442,47 C 390,-6 338,-33 285,-33 Z"/>
  </g>
  <g id="bullet-char-template-9679" transform="scale(0.00048828125,-0.00048828125)">
   <path d="M 813,0 C 632,0 489,54 383,161 276,268 223,411 223,592 223,773 276,916 383,1023 489,1130 632,1184 813,1184 992,1184 1136,1130 1245,1023 1353,916 1407,772 1407,592 1407,412 1353,268 1245,161 1136,54 992,0 813,0 Z"/>
  </g>
  <g id="bullet-char-template-8226" transform="scale(0.00048828125,-0.00048828125)">
   <path d="M 346,457 C 273,457 209,483 155,535 101,586 74,649 74,723 74,796 101,859 155,911 209,963 273,989 346,989 419,989 480,963 531,910 582,859 608,796 608,723 608,648 583,586 532,535 482,483 420,457 346,457 Z"/>
  </g>
  <g id="bullet-char-template-8211" transform="scale(0.00048828125,-0.00048828125)">
   <path d="M -4,459 L 1135,459 1135,606 -4,606 -4,459 Z"/>
  </g>
  <g id="bullet-char-template-61548" transform="scale(0.00048828125,-0.00048828125)">
   <path d="M 173,740 C 173,903 231,1043 346,1159 462,1274 601,1332 765,1332 928,1332 1067,1274 1183,1159 1299,1043 1357,903 1357,740 1357,577 1299,437 1183,322 1067,206 928,148 765,148 601,148 462,206 346,322 231,437 173,577 173,740 Z"/>
  </g>
 </defs>
 <g>
  <g id="id2" class="Master_Slide">
   <g id="bg-id2" class="Background"/>
   <g id="bo-id2" class="BackgroundObjects"/>
  </g>
 </g>
 <g class="SlideGroup">
  <g>
   <g id="container-id1">
    <g id="id1" class="Slide" clip-path="url(#presentation_clip_path)">
     <g class="Page">
      <g class="Graphic">
       <g id="id3">
        <rect class="BoundingBox" stroke="none" fill="none" x="0" y="0" width="2999" height="3000"/>
        <path fill="rgb(224,184,2)" stroke="none" d="M 2038,972 C 1986,968 1941,935 1920,885 L 1627,174 C 1580,57 1413,57 1366,174 L 1075,885 C 1057,935 1010,968 958,972 L 139,1050 C 17,1062 -33,1214 59,1296 L 676,1839 C 716,1874 733,1926 721,1977 L 536,2738 C 507,2858 636,2956 744,2893 L 1427,2491 C 1472,2466 1526,2466 1571,2491 L 2254,2893 C 2362,2956 2491,2860 2463,2738 L 2279,1977 C 2268,1926 2284,1874 2324,1839 L 2941,1296 C 3031,1214 2979,1062 2857,1050 L 2038,972 Z"/>
       </g>
      </g>
      <g class="Graphic">
       <g id="id4">
        <rect class="BoundingBox" stroke="none" fill="none" x="3100" y="0" width="2999" height="3000"/>
        <path fill="rgb(171,171,171)" stroke="none" d="M 5138,972 C 5086,968 5041,935 5020,885 L 4727,174 C 4680,57 4513,57 4466,174 L 4175,885 C 4157,935 4110,968 4058,972 L 3239,1050 C 3117,1062 3067,1214 3159,1296 L 3776,1839 C 3816,1874 3833,1926 3821,1977 L 3636,2738 C 3607,2858 3736,2956 3844,2893 L 4527,2491 C 4572,2466 4626,2466 4671,2491 L 5354,2893 C 5462,2956 5591,2860 5563,2738 L 5379,1977 C 5368,1926 5384,1874 5424,1839 L 6041,1296 C 6131,1214 6079,1062 5957,1050 L 5138,972 Z"/>
       </g>
      </g>
      <g class="Graphic">
       <g id="id5">
        <rect class="BoundingBox" stroke="none" fill="none" x="6200" y="0" width="2999" height="3000"/>
        <path fill="rgb(171,171,171)" stroke="none" d="M 8238,972 C 8186,968 8141,935 8120,885 L 7827,174 C 7780,57 7613,57 7566,174 L 7275,885 C 7257,935 7210,968 7158,972 L 6339,1050 C 6217,1062 6167,1214 6259,1296 L 6876,1839 C 6916,1874 6933,1926 6921,1977 L 6736,2738 C 6707,2858 6836,2956 6944,2893 L 7627,2491 C 7672,2466 7726,2466 7771,2491 L 8454,2893 C 8562,2956 8691,2860 8663,2738 L 8479,1977 C 8468,1926 8484,1874 8524,1839 L 9141,1296 C 9231,1214 9179,1062 9057,1050 L 8238,972 Z"/>
       </g>
      </g>
      <g class="Graphic">
       <g id="id6">
        <rect class="BoundingBox" stroke="none" fill="none" x="9300" y="0" width="2999" height="3000"/>
        <path fill="rgb(171,171,171)" stroke="none" d="M 11338,972 C 11286,968 11241,935 11220,885 L 10927,174 C 10880,57 10713,57 10666,174 L 10375,885 C 10357,935 10310,968 10258,972 L 9439,1050 C 9317,1062 9267,1214 9359,1296 L 9976,1839 C 10016,1874 10033,1926 10021,1977 L 9836,2738 C 9807,2858 9936,2956 10044,2893 L 10727,2491 C 10772,2466 10826,2466 10871,2491 L 11554,2893 C 11662,2956 11791,2860 11763,2738 L 11579,1977 C 11568,1926 11584,1874 11624,1839 L 12241,1296 C 12331,1214 12279,1062 12157,1050 L 11338,972 Z"/>
       </g>
      </g>
      <g class="Graphic">
       <g id="id7">
        <rect class="BoundingBox" stroke="none" fill="none" x="12400" y="0" width="2999" height="3000"/>
        <path fill="rgb(171,171,171)" stroke="none" d="M 14438,972 C 14386,968 14341,935 14320,885 L 14027,174 C 13980,57 13813,57 13766,174 L 13475,885 C 13457,935 13410,968 13358,972 L 12539,1050 C 12417,1062 12367,1214 12459,1296 L 13076,1839 C 13116,1874 13133,1926 13121,1977 L 12936,2738 C 12907,2858 13036,2956 13144,2893 L 13827,2491 C 13872,2466 13926,2466 13971,2491 L 14654,2893 C 14762,2956 14891,2860 14863,2738 L 14679,1977 C 14668,1926 14684,1874 14724,1839 L 15341,1296 C 15431,1214 15379,1062 15257,1050 L 14438,972 Z"/>
       </g>
      </g>
     </g>
    </g>
   </g>
  </g>
 </g>
</svg>