<?xml version="1.0" encoding="UTF-8" standalone="no"?>
<!-- Generator: Adobe Illustrator 19.0.0, SVG Export Plug-In . SVG Version: 6.00 Build 0)  -->

<svg
   version="1.1"
   id="Capa_1"
   x="0px"
   y="0px"
   viewBox="0 0 384.97 384.97"
   style="enable-background:new 0 0 384.97 384.97;"
   xml:space="preserve"
   sodipodi:docname="menu-svgrepo-com.svg"
   inkscape:version="1.2 (1:1.2.1+202207142221+cd75a1ee6d)"
   xmlns:inkscape="http://www.inkscape.org/namespaces/inkscape"
   xmlns:sodipodi="http://sodipodi.sourceforge.net/DTD/sodipodi-0.dtd"
   xmlns="http://www.w3.org/2000/svg"
   xmlns:svg="http://www.w3.org/2000/svg"><defs
   id="defs5109" /><sodipodi:namedview
   id="namedview5107"
   pagecolor="#ffffff"
   bordercolor="#000000"
   borderopacity="0.25"
   inkscape:showpageshadow="2"
   inkscape:pageopacity="0.0"
   inkscape:pagecheckerboard="0"
   inkscape:deskcolor="#d1d1d1"
   showgrid="false"
   inkscape:zoom="0.61303478"
   inkscape:cx="-183.51324"
   inkscape:cy="193.30062"
   inkscape:window-width="1680"
   inkscape:window-height="967"
   inkscape:window-x="0"
   inkscape:window-y="28"
   inkscape:window-maximized="1"
   inkscape:current-layer="Capa_1" />
<g
   id="g5074"
   style="fill:#ede4e0;fill-opacity:1">
	<g
   id="Menu"
   style="fill:#ede4e0;fill-opacity:1">
		<path
   d="M12.03,84.212h360.909c6.641,0,12.03-5.39,12.03-12.03c0-6.641-5.39-12.03-12.03-12.03H12.03    C5.39,60.152,0,65.541,0,72.182C0,78.823,5.39,84.212,12.03,84.212z"
   id="path5055"
   style="fill:#ede4e0;fill-opacity:1" />
		<path
   d="M372.939,180.455H12.03c-6.641,0-12.03,5.39-12.03,12.03s5.39,12.03,12.03,12.03h360.909c6.641,0,12.03-5.39,12.03-12.03    S379.58,180.455,372.939,180.455z"
   id="path5057"
   style="fill:#ede4e0;fill-opacity:1" />
		<path
   d="M372.939,300.758H12.03c-6.641,0-12.03,5.39-12.03,12.03c0,6.641,5.39,12.03,12.03,12.03h360.909    c6.641,0,12.03-5.39,12.03-12.03C384.97,306.147,379.58,300.758,372.939,300.758z"
   id="path5059"
   style="fill:#ede4e0;fill-opacity:1" />
	</g>
	<g
   id="g5062"
   style="fill:#ede4e0;fill-opacity:1">
	</g>
	<g
   id="g5064"
   style="fill:#ede4e0;fill-opacity:1">
	</g>
	<g
   id="g5066"
   style="fill:#ede4e0;fill-opacity:1">
	</g>
	<g
   id="g5068"
   style="fill:#ede4e0;fill-opacity:1">
	</g>
	<g
   id="g5070"
   style="fill:#ede4e0;fill-opacity:1">
	</g>
	<g
   id="g5072"
   style="fill:#ede4e0;fill-opacity:1">
	</g>
</g>
<g
   id="g5076">
</g>
<g
   id="g5078">
</g>
<g
   id="g5080">
</g>
<g
   id="g5082">
</g>
<g
   id="g5084">
</g>
<g
   id="g5086">
</g>
<g
   id="g5088">
</g>
<g
   id="g5090">
</g>
<g
   id="g5092">
</g>
<g
   id="g5094">
</g>
<g
   id="g5096">
</g>
<g
   id="g5098">
</g>
<g
   id="g5100">
</g>
<g
   id="g5102">
</g>
<g
   id="g5104">
</g>
</svg>
